<svg xmlns="http://www.w3.org/2000/svg" xmlns:xlink="http://www.w3.org/1999/xlink" width="500" zoomAndPan="magnify" viewBox="0 0 375 225" height="300" preserveAspectRatio="xMidYMid meet" version="1.0"><defs><g/><clipPath id="17812be4a5"><path d="M 74.121094 143.183594 L 236.472656 143.183594 L 236.472656 162.980469 L 74.121094 162.980469 Z M 74.121094 143.183594 " clip-rule="nonzero"/></clipPath></defs><rect x="-37.5" width="450" fill="#f6f3f0" y="-22.5" height="270" fill-opacity="1"/><g clip-path="url(#17812be4a5)"><path fill="#ffd979" d="M 74.121094 143.183594 L 236.503906 143.183594 L 236.503906 162.980469 L 74.121094 162.980469 Z M 74.121094 143.183594 " fill-opacity="1" fill-rule="nonzero"/></g><g fill="#9178e4" fill-opacity="1"><g transform="translate(70.701902, 126.568411)"><g><path d="M 17.953125 -20.78125 L 17.953125 0 L 5.125 0 L 5.125 -58.15625 L 26.9375 -58.15625 C 30.070312 -58.15625 32.992188 -57.367188 35.703125 -55.796875 C 38.410156 -54.234375 40.585938 -52.050781 42.234375 -49.25 C 43.890625 -46.457031 44.71875 -43.210938 44.71875 -39.515625 C 44.71875 -35.578125 43.890625 -32.210938 42.234375 -29.421875 C 40.585938 -26.628906 38.410156 -24.488281 35.703125 -23 C 32.992188 -21.519531 30.070312 -20.78125 26.9375 -20.78125 Z M 24.796875 -48.0625 L 17.953125 -48.0625 L 17.953125 -30.875 L 24.796875 -30.875 C 26.679688 -30.875 28.4375 -31.613281 30.0625 -33.09375 C 31.6875 -34.570312 32.5 -36.710938 32.5 -39.515625 C 32.5 -42.191406 31.6875 -44.285156 30.0625 -45.796875 C 28.4375 -47.304688 26.679688 -48.0625 24.796875 -48.0625 Z M 24.796875 -48.0625 "/></g></g></g><g fill="#9178e4" fill-opacity="1"><g transform="translate(116.701701, 126.568411)"><g><path d="M 50.03125 -29.15625 C 50.03125 -32.175781 49.226562 -34.984375 47.625 -37.578125 C 46.03125 -40.171875 43.9375 -42.265625 41.34375 -43.859375 C 38.75 -45.460938 35.941406 -46.265625 32.921875 -46.265625 C 29.960938 -46.265625 27.171875 -45.460938 24.546875 -43.859375 C 21.921875 -42.265625 19.8125 -40.171875 18.21875 -37.578125 C 16.625 -34.984375 15.828125 -32.175781 15.828125 -29.15625 C 15.828125 -26.195312 16.625 -23.40625 18.21875 -20.78125 C 19.8125 -18.15625 21.921875 -16.03125 24.546875 -14.40625 C 27.171875 -12.78125 29.960938 -11.96875 32.921875 -11.96875 C 35.941406 -11.96875 38.75 -12.78125 41.34375 -14.40625 C 43.9375 -16.03125 46.03125 -18.15625 47.625 -20.78125 C 49.226562 -23.40625 50.03125 -26.195312 50.03125 -29.15625 Z M 62.859375 -29.078125 C 62.859375 -25.085938 62.054688 -21.28125 60.453125 -17.65625 C 58.859375 -14.039062 56.675781 -10.847656 53.90625 -8.078125 C 51.144531 -5.316406 47.96875 -3.132812 44.375 -1.53125 C 40.789062 0.0625 36.972656 0.859375 32.921875 0.859375 C 28.929688 0.859375 25.125 0.0625 21.5 -1.53125 C 17.882812 -3.132812 14.691406 -5.316406 11.921875 -8.078125 C 9.160156 -10.847656 6.984375 -14.039062 5.390625 -17.65625 C 3.796875 -21.28125 3 -25.085938 3 -29.078125 C 3 -33.117188 3.796875 -36.9375 5.390625 -40.53125 C 6.984375 -44.125 9.160156 -47.300781 11.921875 -50.0625 C 14.691406 -52.832031 17.882812 -55.015625 21.5 -56.609375 C 25.125 -58.203125 28.929688 -59 32.921875 -59 C 36.972656 -59 40.789062 -58.203125 44.375 -56.609375 C 47.96875 -55.015625 51.144531 -52.832031 53.90625 -50.0625 C 56.675781 -47.300781 58.859375 -44.125 60.453125 -40.53125 C 62.054688 -36.9375 62.859375 -33.117188 62.859375 -29.078125 Z M 62.859375 -29.078125 "/></g></g></g><g fill="#9178e4" fill-opacity="1"><g transform="translate(182.537845, 126.568411)"><g><path d="M 27.703125 -9.0625 C 29.078125 -9.0625 30.5625 -9.273438 32.15625 -9.703125 C 33.75 -10.128906 35.128906 -10.84375 36.296875 -11.84375 C 37.460938 -12.84375 38.046875 -14.195312 38.046875 -15.90625 C 38.046875 -17.5 37.429688 -18.78125 36.203125 -19.75 C 34.984375 -20.71875 33.375 -21.515625 31.375 -22.140625 C 29.382812 -22.773438 27.207031 -23.363281 24.84375 -23.90625 C 22.476562 -24.445312 20.097656 -25.097656 17.703125 -25.859375 C 15.304688 -26.628906 13.109375 -27.640625 11.109375 -28.890625 C 9.117188 -30.148438 7.507812 -31.773438 6.28125 -33.765625 C 5.0625 -35.765625 4.453125 -38.304688 4.453125 -41.390625 C 4.453125 -44.410156 5.078125 -47.015625 6.328125 -49.203125 C 7.578125 -51.398438 9.242188 -53.226562 11.328125 -54.6875 C 13.410156 -56.144531 15.75 -57.226562 18.34375 -57.9375 C 20.9375 -58.644531 23.546875 -59 26.171875 -59 C 30.160156 -59 33.894531 -58.375 37.375 -57.125 C 40.851562 -55.875 43.6875 -53.894531 45.875 -51.1875 C 48.070312 -48.476562 49.226562 -44.898438 49.34375 -40.453125 L 36.9375 -40.453125 C 36.601562 -43.472656 35.550781 -45.566406 33.78125 -46.734375 C 32.007812 -47.898438 29.53125 -48.484375 26.34375 -48.484375 C 25.144531 -48.484375 23.875 -48.285156 22.53125 -47.890625 C 21.195312 -47.492188 20.054688 -46.851562 19.109375 -45.96875 C 18.171875 -45.082031 17.703125 -43.898438 17.703125 -42.421875 C 17.703125 -40.929688 18.3125 -39.757812 19.53125 -38.90625 C 20.757812 -38.050781 22.367188 -37.335938 24.359375 -36.765625 C 26.359375 -36.203125 28.554688 -35.660156 30.953125 -35.140625 C 33.347656 -34.628906 35.726562 -34.003906 38.09375 -33.265625 C 40.457031 -32.523438 42.632812 -31.515625 44.625 -30.234375 C 46.625 -28.953125 48.238281 -27.285156 49.46875 -25.234375 C 50.695312 -23.179688 51.3125 -20.554688 51.3125 -17.359375 C 51.3125 -13.941406 50.625 -11.035156 49.25 -8.640625 C 47.882812 -6.242188 46.046875 -4.316406 43.734375 -2.859375 C 41.429688 -1.410156 38.835938 -0.34375 35.953125 0.34375 C 33.078125 1.03125 30.15625 1.375 27.1875 1.375 C 22.914062 1.375 18.910156 0.644531 15.171875 -0.8125 C 11.441406 -2.269531 8.421875 -4.507812 6.109375 -7.53125 C 3.804688 -10.550781 2.625 -14.425781 2.5625 -19.15625 L 15.5625 -19.15625 C 15.738281 -15.675781 17.019531 -13.125 19.40625 -11.5 C 21.800781 -9.875 24.566406 -9.0625 27.703125 -9.0625 Z M 27.703125 -9.0625 "/></g></g></g><g fill="#9178e4" fill-opacity="1"><g transform="translate(236.403776, 126.568411)"><g><path d="M 38.828125 -11.625 L 38.828125 0 L 5.125 0 L 5.125 -58.15625 L 38.828125 -58.15625 L 38.828125 -46.515625 L 17.953125 -46.515625 L 17.953125 -34.96875 L 37.96875 -34.96875 L 37.96875 -23.34375 L 17.953125 -23.34375 L 17.953125 -11.625 Z M 38.828125 -11.625 "/></g></g></g><g fill="#9178e4" fill-opacity="1"><g transform="translate(280.35154, 126.568411)"><g><path d="M 4.453125 -6.578125 C 4.453125 -8.691406 5.175781 -10.472656 6.625 -11.921875 C 8.082031 -13.378906 9.863281 -14.109375 11.96875 -14.109375 C 14.019531 -14.109375 15.785156 -13.378906 17.265625 -11.921875 C 18.753906 -10.472656 19.5 -8.691406 19.5 -6.578125 C 19.5 -4.523438 18.753906 -2.769531 17.265625 -1.3125 C 15.785156 0.132812 14.019531 0.859375 11.96875 0.859375 C 9.863281 0.859375 8.082031 0.132812 6.625 -1.3125 C 5.175781 -2.769531 4.453125 -4.523438 4.453125 -6.578125 Z M 4.453125 -6.578125 "/></g></g></g><g fill="#9178e4" fill-opacity="1"><g transform="translate(165.593999, 156.879017)"><g><path d="M 1.59375 -0.71875 C 1.789062 -0.582031 2.050781 -0.515625 2.375 -0.515625 C 3.101562 -0.515625 3.46875 -0.789062 3.46875 -1.34375 C 3.46875 -1.664062 3.207031 -1.910156 2.6875 -2.078125 C 2.457031 -2.148438 2.21875 -2.21875 1.96875 -2.28125 C 1.707031 -2.34375 1.46875 -2.421875 1.25 -2.515625 C 0.988281 -2.640625 0.796875 -2.796875 0.671875 -2.984375 C 0.535156 -3.160156 0.46875 -3.378906 0.46875 -3.640625 C 0.46875 -4.140625 0.644531 -4.515625 1 -4.765625 C 1.351562 -5.023438 1.773438 -5.15625 2.265625 -5.15625 C 2.753906 -5.15625 3.15625 -5.054688 3.46875 -4.859375 C 3.789062 -4.660156 4.007812 -4.304688 4.125 -3.796875 L 3.265625 -3.796875 C 3.171875 -4.078125 3.035156 -4.265625 2.859375 -4.359375 C 2.691406 -4.453125 2.484375 -4.5 2.234375 -4.5 C 1.984375 -4.5 1.769531 -4.441406 1.59375 -4.328125 C 1.40625 -4.210938 1.3125 -4.046875 1.3125 -3.828125 C 1.3125 -3.597656 1.390625 -3.429688 1.546875 -3.328125 C 1.691406 -3.222656 1.875 -3.132812 2.09375 -3.0625 C 2.320312 -2.988281 2.566406 -2.925781 2.828125 -2.875 C 3.078125 -2.8125 3.316406 -2.726562 3.546875 -2.625 C 4.066406 -2.382812 4.328125 -1.988281 4.328125 -1.4375 C 4.328125 -0.894531 4.128906 -0.492188 3.734375 -0.234375 C 3.535156 -0.109375 3.316406 -0.0078125 3.078125 0.0625 C 2.847656 0.125 2.597656 0.15625 2.328125 0.15625 C 1.160156 0.15625 0.488281 -0.363281 0.3125 -1.40625 L 1.15625 -1.40625 C 1.238281 -1.082031 1.382812 -0.851562 1.59375 -0.71875 Z M 1.59375 -0.71875 "/></g></g></g><g fill="#9178e4" fill-opacity="1"><g transform="translate(170.201328, 156.879017)"><g><path d="M 4.984375 -2.546875 C 4.984375 -3.046875 4.804688 -3.476562 4.453125 -3.84375 C 4.085938 -4.195312 3.65625 -4.375 3.15625 -4.375 C 2.644531 -4.375 2.210938 -4.195312 1.859375 -3.84375 C 1.492188 -3.476562 1.3125 -3.046875 1.3125 -2.546875 C 1.3125 -2.046875 1.492188 -1.617188 1.859375 -1.265625 C 2.210938 -0.898438 2.644531 -0.71875 3.15625 -0.71875 C 3.65625 -0.71875 4.085938 -0.898438 4.453125 -1.265625 C 4.804688 -1.617188 4.984375 -2.046875 4.984375 -2.546875 Z M 5.796875 -2.546875 C 5.796875 -1.804688 5.535156 -1.1875 5.015625 -0.6875 C 4.492188 -0.175781 3.875 0.078125 3.15625 0.078125 C 2.4375 0.078125 1.816406 -0.175781 1.296875 -0.6875 C 0.773438 -1.1875 0.515625 -1.804688 0.515625 -2.546875 C 0.515625 -3.273438 0.773438 -3.898438 1.296875 -4.421875 C 1.804688 -4.929688 2.425781 -5.1875 3.15625 -5.1875 C 3.882812 -5.1875 4.503906 -4.929688 5.015625 -4.421875 C 5.535156 -3.898438 5.796875 -3.273438 5.796875 -2.546875 Z M 5.796875 -2.546875 "/></g></g></g><g fill="#9178e4" fill-opacity="1"><g transform="translate(176.504878, 156.879017)"><g><path d="M 7.265625 -0.015625 L 7.265625 -3.171875 C 7.265625 -3.691406 7.097656 -4.0625 6.765625 -4.28125 C 6.648438 -4.34375 6.472656 -4.375 6.234375 -4.375 C 6.003906 -4.375 5.785156 -4.304688 5.578125 -4.171875 C 5.367188 -4.035156 5.203125 -3.859375 5.078125 -3.640625 C 5.035156 -3.554688 4.992188 -3.46875 4.953125 -3.375 C 4.953125 -3.3125 4.953125 -3.242188 4.953125 -3.171875 L 4.953125 -0.015625 L 4.15625 -0.015625 L 4.15625 -3.171875 C 4.15625 -3.691406 3.988281 -4.0625 3.65625 -4.28125 C 3.539062 -4.34375 3.363281 -4.375 3.125 -4.375 C 2.894531 -4.375 2.675781 -4.304688 2.46875 -4.171875 C 2.257812 -4.035156 2.09375 -3.859375 1.96875 -3.640625 C 1.8125 -3.359375 1.707031 -3.015625 1.65625 -2.609375 L 1.65625 -0.015625 L 0.859375 -0.015625 L 0.859375 -5.0625 L 1.65625 -5.0625 L 1.65625 -4.265625 C 1.8125 -4.523438 2.003906 -4.734375 2.234375 -4.890625 C 2.492188 -5.085938 2.800781 -5.1875 3.15625 -5.1875 C 3.507812 -5.1875 3.789062 -5.128906 4 -5.015625 C 4.21875 -4.898438 4.398438 -4.753906 4.546875 -4.578125 C 4.617188 -4.472656 4.6875 -4.351562 4.75 -4.21875 C 4.90625 -4.5 5.101562 -4.722656 5.34375 -4.890625 C 5.601562 -5.085938 5.910156 -5.1875 6.265625 -5.1875 C 6.617188 -5.1875 6.898438 -5.128906 7.109375 -5.015625 C 7.328125 -4.898438 7.507812 -4.753906 7.65625 -4.578125 C 7.925781 -4.210938 8.0625 -3.742188 8.0625 -3.171875 L 8.0625 -0.015625 Z M 7.265625 -0.015625 "/></g></g></g><g fill="#9178e4" fill-opacity="1"><g transform="translate(185.249624, 156.879017)"><g><path d="M 5.796875 -2.640625 L 5.796875 -2.21875 L 1.359375 -2.21875 C 1.429688 -1.78125 1.640625 -1.421875 1.984375 -1.140625 C 2.335938 -0.859375 2.726562 -0.71875 3.15625 -0.71875 C 3.445312 -0.71875 3.722656 -0.785156 3.984375 -0.921875 C 4.242188 -1.054688 4.460938 -1.242188 4.640625 -1.484375 L 5.5625 -1.484375 C 5.34375 -0.992188 5.019531 -0.613281 4.59375 -0.34375 C 4.15625 -0.0625 3.71875 0.078125 3.28125 0.078125 C 2.832031 0.078125 2.453125 0.0078125 2.140625 -0.125 C 1.816406 -0.257812 1.535156 -0.445312 1.296875 -0.6875 C 0.773438 -1.1875 0.515625 -1.804688 0.515625 -2.546875 C 0.515625 -3.273438 0.773438 -3.898438 1.296875 -4.421875 C 1.804688 -4.929688 2.425781 -5.1875 3.15625 -5.1875 C 3.851562 -5.1875 4.46875 -4.9375 5 -4.4375 C 5.53125 -3.9375 5.796875 -3.335938 5.796875 -2.640625 Z M 4.9375 -2.90625 C 4.851562 -3.332031 4.640625 -3.6875 4.296875 -3.96875 C 3.960938 -4.238281 3.582031 -4.375 3.15625 -4.375 C 2.5 -4.375 1.984375 -4.082031 1.609375 -3.5 C 1.492188 -3.3125 1.410156 -3.113281 1.359375 -2.90625 Z M 4.9375 -2.90625 "/></g></g></g><g fill="#9178e4" fill-opacity="1"><g transform="translate(191.495876, 156.879017)"><g><path d="M 0.234375 -4.296875 L 0.234375 -5.046875 L 1.484375 -5.046875 L 1.484375 -7 L 2.296875 -7 L 2.296875 -5.046875 L 3.546875 -5.046875 L 3.546875 -4.296875 L 2.296875 -4.296875 L 2.296875 0 L 1.484375 0 L 1.484375 -4.296875 Z M 0.234375 -4.296875 "/></g></g></g><g fill="#9178e4" fill-opacity="1"><g transform="translate(195.266545, 156.879017)"><g><path d="M 1.65625 0 L 0.859375 0 L 0.859375 -8.59375 L 1.65625 -8.59375 L 1.65625 -4.171875 C 1.832031 -4.453125 2.050781 -4.6875 2.3125 -4.875 C 2.582031 -5.0625 2.894531 -5.15625 3.25 -5.15625 C 3.613281 -5.15625 3.90625 -5.101562 4.125 -5 C 4.351562 -4.894531 4.539062 -4.753906 4.6875 -4.578125 C 5 -4.210938 5.15625 -3.738281 5.15625 -3.15625 L 5.15625 0 L 4.34375 0 L 4.34375 -3.15625 C 4.34375 -3.476562 4.269531 -3.757812 4.125 -4 C 3.976562 -4.226562 3.734375 -4.34375 3.390625 -4.34375 C 3.035156 -4.34375 2.753906 -4.289062 2.546875 -4.1875 C 2.328125 -4.070312 2.15625 -3.914062 2.03125 -3.71875 C 1.78125 -3.351562 1.65625 -2.816406 1.65625 -2.109375 Z M 1.65625 0 "/></g></g></g><g fill="#9178e4" fill-opacity="1"><g transform="translate(201.100201, 156.879017)"><g><path d="M 1.671875 -6.796875 C 1.773438 -6.691406 1.828125 -6.570312 1.828125 -6.4375 C 1.828125 -6.289062 1.773438 -6.164062 1.671875 -6.0625 C 1.578125 -5.96875 1.457031 -5.921875 1.3125 -5.921875 C 1.164062 -5.921875 1.046875 -5.96875 0.953125 -6.0625 C 0.847656 -6.164062 0.796875 -6.289062 0.796875 -6.4375 C 0.796875 -6.570312 0.847656 -6.691406 0.953125 -6.796875 C 1.046875 -6.890625 1.164062 -6.9375 1.3125 -6.9375 C 1.457031 -6.9375 1.578125 -6.890625 1.671875 -6.796875 Z M 1.71875 0 L 0.921875 0 L 0.921875 -5.046875 L 1.71875 -5.046875 Z M 1.71875 0 "/></g></g></g><g fill="#9178e4" fill-opacity="1"><g transform="translate(203.72477, 156.879017)"><g><path d="M 4.34375 0 L 4.34375 -3.15625 C 4.34375 -3.476562 4.269531 -3.757812 4.125 -4 C 3.976562 -4.226562 3.734375 -4.34375 3.390625 -4.34375 C 3.035156 -4.34375 2.753906 -4.28125 2.546875 -4.15625 C 2.328125 -4.019531 2.15625 -3.847656 2.03125 -3.640625 C 1.78125 -3.265625 1.65625 -2.753906 1.65625 -2.109375 L 1.65625 0 L 0.859375 0 L 0.859375 -5.046875 L 1.65625 -5.046875 L 1.65625 -4.171875 C 1.832031 -4.453125 2.050781 -4.6875 2.3125 -4.875 C 2.582031 -5.0625 2.894531 -5.15625 3.25 -5.15625 C 3.613281 -5.15625 3.90625 -5.101562 4.125 -5 C 4.351562 -4.894531 4.539062 -4.753906 4.6875 -4.578125 C 5 -4.210938 5.15625 -3.738281 5.15625 -3.15625 L 5.15625 0 Z M 4.34375 0 "/></g></g></g><g fill="#9178e4" fill-opacity="1"><g transform="translate(209.558426, 156.879017)"><g><path d="M 4.9375 -2.515625 C 4.9375 -3.003906 4.769531 -3.4375 4.4375 -3.8125 C 4.09375 -4.175781 3.671875 -4.359375 3.171875 -4.359375 C 2.679688 -4.359375 2.257812 -4.175781 1.90625 -3.8125 C 1.5625 -3.445312 1.390625 -3.015625 1.390625 -2.515625 C 1.390625 -2.023438 1.5625 -1.597656 1.90625 -1.234375 C 2.257812 -0.867188 2.679688 -0.6875 3.171875 -0.6875 C 3.671875 -0.6875 4.09375 -0.867188 4.4375 -1.234375 C 4.769531 -1.609375 4.9375 -2.035156 4.9375 -2.515625 Z M 1.359375 0.6875 C 1.441406 1 1.609375 1.28125 1.859375 1.53125 C 2.210938 1.882812 2.632812 2.0625 3.125 2.0625 C 3.625 2.0625 4.054688 1.882812 4.421875 1.53125 C 4.765625 1.175781 4.9375 0.75 4.9375 0.25 L 4.9375 -0.84375 C 4.90625 -0.789062 4.863281 -0.738281 4.8125 -0.6875 C 4.332031 -0.15625 3.742188 0.109375 3.046875 0.109375 C 2.347656 0.109375 1.757812 -0.15625 1.28125 -0.6875 C 0.8125 -1.207031 0.578125 -1.816406 0.578125 -2.515625 C 0.578125 -3.222656 0.8125 -3.835938 1.28125 -4.359375 C 1.757812 -4.890625 2.347656 -5.15625 3.046875 -5.15625 C 3.722656 -5.15625 4.3125 -4.890625 4.8125 -4.359375 C 4.863281 -4.304688 4.90625 -4.253906 4.9375 -4.203125 L 4.9375 -5.046875 L 5.75 -5.046875 L 5.75 0.25 C 5.75 0.96875 5.492188 1.582031 4.984375 2.09375 C 4.460938 2.601562 3.84375 2.859375 3.125 2.859375 C 2.40625 2.859375 1.789062 2.601562 1.28125 2.09375 C 0.875 1.6875 0.628906 1.21875 0.546875 0.6875 Z M 1.359375 0.6875 "/></g></g></g><g fill="#9178e4" fill-opacity="1"><g transform="translate(216.159966, 156.879017)"><g/></g></g><g fill="#9178e4" fill-opacity="1"><g transform="translate(219.254438, 156.879017)"><g><path d="M 3.5625 -7.859375 L 2.875 -7.859375 C 2.613281 -7.859375 2.4375 -7.796875 2.34375 -7.671875 C 2.257812 -7.546875 2.21875 -7.394531 2.21875 -7.21875 L 2.21875 -5.046875 L 3.5625 -5.046875 L 3.5625 -4.296875 L 2.21875 -4.296875 L 2.21875 0 L 1.421875 0 L 1.421875 -4.296875 L 0.40625 -4.296875 L 0.40625 -5.046875 L 1.421875 -5.046875 L 1.421875 -7 C 1.421875 -7.507812 1.546875 -7.90625 1.796875 -8.1875 C 2.023438 -8.457031 2.425781 -8.59375 3 -8.59375 L 3.5625 -8.59375 Z M 3.5625 -7.859375 "/></g></g></g><g fill="#9178e4" fill-opacity="1"><g transform="translate(223.162642, 156.879017)"><g><path d="M 4.984375 -2.546875 C 4.984375 -3.046875 4.804688 -3.476562 4.453125 -3.84375 C 4.085938 -4.195312 3.65625 -4.375 3.15625 -4.375 C 2.644531 -4.375 2.210938 -4.195312 1.859375 -3.84375 C 1.492188 -3.476562 1.3125 -3.046875 1.3125 -2.546875 C 1.3125 -2.046875 1.492188 -1.617188 1.859375 -1.265625 C 2.210938 -0.898438 2.644531 -0.71875 3.15625 -0.71875 C 3.65625 -0.71875 4.085938 -0.898438 4.453125 -1.265625 C 4.804688 -1.617188 4.984375 -2.046875 4.984375 -2.546875 Z M 5.796875 -2.546875 C 5.796875 -1.804688 5.535156 -1.1875 5.015625 -0.6875 C 4.492188 -0.175781 3.875 0.078125 3.15625 0.078125 C 2.4375 0.078125 1.816406 -0.175781 1.296875 -0.6875 C 0.773438 -1.1875 0.515625 -1.804688 0.515625 -2.546875 C 0.515625 -3.273438 0.773438 -3.898438 1.296875 -4.421875 C 1.804688 -4.929688 2.425781 -5.1875 3.15625 -5.1875 C 3.882812 -5.1875 4.503906 -4.929688 5.015625 -4.421875 C 5.535156 -3.898438 5.796875 -3.273438 5.796875 -2.546875 Z M 5.796875 -2.546875 "/></g></g></g><g fill="#9178e4" fill-opacity="1"><g transform="translate(229.466193, 156.879017)"><g><path d="M 3.453125 -4 C 3.265625 -4.164062 3.066406 -4.25 2.859375 -4.25 C 2.648438 -4.25 2.472656 -4.191406 2.328125 -4.078125 C 2.171875 -3.960938 2.046875 -3.816406 1.953125 -3.640625 C 1.753906 -3.304688 1.65625 -2.929688 1.65625 -2.515625 L 1.65625 0 L 0.859375 0 L 0.859375 -5.046875 L 1.65625 -5.046875 L 1.65625 -4 L 1.703125 -4.203125 C 1.960938 -4.835938 2.378906 -5.15625 2.953125 -5.15625 C 3.128906 -5.15625 3.296875 -5.117188 3.453125 -5.046875 Z M 3.453125 -4 "/></g></g></g><g fill="#9178e4" fill-opacity="1"><g transform="translate(233.037092, 156.879017)"><g/></g></g><g fill="#9178e4" fill-opacity="1"><g transform="translate(236.131564, 156.879017)"><g/></g></g><g fill="#9178e4" fill-opacity="1"><g transform="translate(239.232987, 156.879017)"><g><path d="M 5.796875 -2.640625 L 5.796875 -2.21875 L 1.359375 -2.21875 C 1.429688 -1.78125 1.640625 -1.421875 1.984375 -1.140625 C 2.335938 -0.859375 2.726562 -0.71875 3.15625 -0.71875 C 3.445312 -0.71875 3.722656 -0.785156 3.984375 -0.921875 C 4.242188 -1.054688 4.460938 -1.242188 4.640625 -1.484375 L 5.5625 -1.484375 C 5.34375 -0.992188 5.019531 -0.613281 4.59375 -0.34375 C 4.15625 -0.0625 3.71875 0.078125 3.28125 0.078125 C 2.832031 0.078125 2.453125 0.0078125 2.140625 -0.125 C 1.816406 -0.257812 1.535156 -0.445312 1.296875 -0.6875 C 0.773438 -1.1875 0.515625 -1.804688 0.515625 -2.546875 C 0.515625 -3.273438 0.773438 -3.898438 1.296875 -4.421875 C 1.804688 -4.929688 2.425781 -5.1875 3.15625 -5.1875 C 3.851562 -5.1875 4.46875 -4.9375 5 -4.4375 C 5.53125 -3.9375 5.796875 -3.335938 5.796875 -2.640625 Z M 4.9375 -2.90625 C 4.851562 -3.332031 4.640625 -3.6875 4.296875 -3.96875 C 3.960938 -4.238281 3.582031 -4.375 3.15625 -4.375 C 2.5 -4.375 1.984375 -4.082031 1.609375 -3.5 C 1.492188 -3.3125 1.410156 -3.113281 1.359375 -2.90625 Z M 4.9375 -2.90625 "/></g></g></g><g fill="#9178e4" fill-opacity="1"><g transform="translate(245.479239, 156.879017)"><g><path d="M 2.4375 0.484375 L 0.109375 -5.046875 L 0.984375 -5.046875 L 2.4375 -1.296875 L 3.890625 -5.046875 L 4.765625 -5.046875 Z M 2.4375 0.484375 "/></g></g></g><g fill="#9178e4" fill-opacity="1"><g transform="translate(250.350169, 156.879017)"><g><path d="M 5.796875 -2.640625 L 5.796875 -2.21875 L 1.359375 -2.21875 C 1.429688 -1.78125 1.640625 -1.421875 1.984375 -1.140625 C 2.335938 -0.859375 2.726562 -0.71875 3.15625 -0.71875 C 3.445312 -0.71875 3.722656 -0.785156 3.984375 -0.921875 C 4.242188 -1.054688 4.460938 -1.242188 4.640625 -1.484375 L 5.5625 -1.484375 C 5.34375 -0.992188 5.019531 -0.613281 4.59375 -0.34375 C 4.15625 -0.0625 3.71875 0.078125 3.28125 0.078125 C 2.832031 0.078125 2.453125 0.0078125 2.140625 -0.125 C 1.816406 -0.257812 1.535156 -0.445312 1.296875 -0.6875 C 0.773438 -1.1875 0.515625 -1.804688 0.515625 -2.546875 C 0.515625 -3.273438 0.773438 -3.898438 1.296875 -4.421875 C 1.804688 -4.929688 2.425781 -5.1875 3.15625 -5.1875 C 3.851562 -5.1875 4.46875 -4.9375 5 -4.4375 C 5.53125 -3.9375 5.796875 -3.335938 5.796875 -2.640625 Z M 4.9375 -2.90625 C 4.851562 -3.332031 4.640625 -3.6875 4.296875 -3.96875 C 3.960938 -4.238281 3.582031 -4.375 3.15625 -4.375 C 2.5 -4.375 1.984375 -4.082031 1.609375 -3.5 C 1.492188 -3.3125 1.410156 -3.113281 1.359375 -2.90625 Z M 4.9375 -2.90625 "/></g></g></g><g fill="#9178e4" fill-opacity="1"><g transform="translate(256.596421, 156.879017)"><g><path d="M 3.453125 -4 C 3.265625 -4.164062 3.066406 -4.25 2.859375 -4.25 C 2.648438 -4.25 2.472656 -4.191406 2.328125 -4.078125 C 2.171875 -3.960938 2.046875 -3.816406 1.953125 -3.640625 C 1.753906 -3.304688 1.65625 -2.929688 1.65625 -2.515625 L 1.65625 0 L 0.859375 0 L 0.859375 -5.046875 L 1.65625 -5.046875 L 1.65625 -4 L 1.703125 -4.203125 C 1.960938 -4.835938 2.378906 -5.15625 2.953125 -5.15625 C 3.128906 -5.15625 3.296875 -5.117188 3.453125 -5.046875 Z M 3.453125 -4 "/></g></g></g><g fill="#9178e4" fill-opacity="1"><g transform="translate(260.160796, 156.879017)"><g><path d="M 1.5 2.859375 L 0.53125 2.859375 L 2.21875 -0.828125 L 0.109375 -5.046875 L 1.03125 -5.046875 L 2.65625 -1.65625 L 4.09375 -5.046875 L 4.984375 -5.046875 Z M 1.5 2.859375 "/></g></g></g><g fill="#9178e4" fill-opacity="1"><g transform="translate(265.031726, 156.879017)"><g><path d="M 1.65625 0 L 0.859375 0 L 0.859375 -8.59375 L 1.65625 -8.59375 L 1.65625 -4.1875 C 1.707031 -4.25 1.757812 -4.304688 1.8125 -4.359375 C 2.28125 -4.890625 2.863281 -5.15625 3.5625 -5.15625 C 4.257812 -5.15625 4.847656 -4.890625 5.328125 -4.359375 C 5.785156 -3.835938 6.015625 -3.222656 6.015625 -2.515625 C 6.015625 -1.816406 5.785156 -1.207031 5.328125 -0.6875 C 4.847656 -0.15625 4.257812 0.109375 3.5625 0.109375 C 2.863281 0.109375 2.28125 -0.15625 1.8125 -0.6875 C 1.757812 -0.738281 1.707031 -0.796875 1.65625 -0.859375 Z M 5.21875 -2.515625 C 5.21875 -3.003906 5.050781 -3.4375 4.71875 -3.8125 C 4.375 -4.175781 3.945312 -4.359375 3.4375 -4.359375 C 2.9375 -4.359375 2.515625 -4.175781 2.171875 -3.8125 C 1.828125 -3.4375 1.65625 -3.003906 1.65625 -2.515625 C 1.65625 -2.035156 1.828125 -1.609375 2.171875 -1.234375 C 2.515625 -0.867188 2.9375 -0.6875 3.4375 -0.6875 C 3.945312 -0.6875 4.375 -0.867188 4.71875 -1.234375 C 5.050781 -1.609375 5.21875 -2.035156 5.21875 -2.515625 Z M 5.21875 -2.515625 "/></g></g></g><g fill="#9178e4" fill-opacity="1"><g transform="translate(271.564499, 156.879017)"><g><path d="M 4.984375 -2.546875 C 4.984375 -3.046875 4.804688 -3.476562 4.453125 -3.84375 C 4.085938 -4.195312 3.65625 -4.375 3.15625 -4.375 C 2.644531 -4.375 2.210938 -4.195312 1.859375 -3.84375 C 1.492188 -3.476562 1.3125 -3.046875 1.3125 -2.546875 C 1.3125 -2.046875 1.492188 -1.617188 1.859375 -1.265625 C 2.210938 -0.898438 2.644531 -0.71875 3.15625 -0.71875 C 3.65625 -0.71875 4.085938 -0.898438 4.453125 -1.265625 C 4.804688 -1.617188 4.984375 -2.046875 4.984375 -2.546875 Z M 5.796875 -2.546875 C 5.796875 -1.804688 5.535156 -1.1875 5.015625 -0.6875 C 4.492188 -0.175781 3.875 0.078125 3.15625 0.078125 C 2.4375 0.078125 1.816406 -0.175781 1.296875 -0.6875 C 0.773438 -1.1875 0.515625 -1.804688 0.515625 -2.546875 C 0.515625 -3.273438 0.773438 -3.898438 1.296875 -4.421875 C 1.804688 -4.929688 2.425781 -5.1875 3.15625 -5.1875 C 3.882812 -5.1875 4.503906 -4.929688 5.015625 -4.421875 C 5.535156 -3.898438 5.796875 -3.273438 5.796875 -2.546875 Z M 5.796875 -2.546875 "/></g></g></g><g fill="#9178e4" fill-opacity="1"><g transform="translate(277.86805, 156.879017)"><g><path d="M 4.875 -2.515625 C 4.875 -3.003906 4.707031 -3.4375 4.375 -3.8125 C 4.03125 -4.175781 3.601562 -4.359375 3.09375 -4.359375 C 2.59375 -4.359375 2.171875 -4.175781 1.828125 -3.8125 C 1.484375 -3.4375 1.3125 -3.003906 1.3125 -2.515625 C 1.3125 -2.035156 1.484375 -1.609375 1.828125 -1.234375 C 2.171875 -0.867188 2.59375 -0.6875 3.09375 -0.6875 C 3.601562 -0.6875 4.03125 -0.867188 4.375 -1.234375 C 4.707031 -1.609375 4.875 -2.035156 4.875 -2.515625 Z M 5.671875 0 L 4.875 0 L 4.875 -0.859375 C 4.832031 -0.796875 4.785156 -0.738281 4.734375 -0.6875 C 4.253906 -0.15625 3.664062 0.109375 2.96875 0.109375 C 2.269531 0.109375 1.6875 -0.15625 1.21875 -0.6875 C 0.75 -1.207031 0.515625 -1.816406 0.515625 -2.515625 C 0.515625 -3.222656 0.75 -3.835938 1.21875 -4.359375 C 1.6875 -4.890625 2.269531 -5.15625 2.96875 -5.15625 C 3.664062 -5.15625 4.253906 -4.890625 4.734375 -4.359375 C 4.785156 -4.304688 4.832031 -4.25 4.875 -4.1875 L 4.875 -8.59375 L 5.671875 -8.59375 Z M 5.671875 0 "/></g></g></g><g fill="#9178e4" fill-opacity="1"><g transform="translate(284.400822, 156.879017)"><g><path d="M 1.5 2.859375 L 0.53125 2.859375 L 2.21875 -0.828125 L 0.109375 -5.046875 L 1.03125 -5.046875 L 2.65625 -1.65625 L 4.09375 -5.046875 L 4.984375 -5.046875 Z M 1.5 2.859375 "/></g></g></g></svg>